<?xml version="1.0" encoding="UTF-8" standalone="no"?>
<!DOCTYPE svg PUBLIC "-//W3C//DTD SVG 20010904//EN"
              "http://www.w3.org/TR/2001/REC-SVG-20010904/DTD/svg10.dtd">

<svg xmlns="http://www.w3.org/2000/svg"
     width="5.33333in" height="5.33333in"
     viewBox="0 0 512 512">
  <path id="选区"
        fill="black" stroke="black" stroke-width="1"
        d="M 238.00,4.21
           C 238.00,4.21 266.00,4.21 266.00,4.21
             284.81,4.09 311.96,9.52 330.00,15.12
             398.80,36.46 452.76,82.75 483.68,148.00
             495.58,173.11 501.59,196.63 505.28,224.00
             506.30,231.53 506.99,231.69 507.00,240.00
             507.00,240.00 507.00,272.00 507.00,272.00
             506.99,280.47 506.33,279.60 505.28,287.00
             502.59,306.01 501.84,312.29 496.02,331.00
             472.70,406.05 418.35,463.37 345.00,491.57
             325.46,499.09 307.53,502.37 287.00,505.28
             279.60,506.33 280.47,506.99 272.00,507.00
             272.00,507.00 238.00,507.00 238.00,507.00
             232.17,506.93 229.48,506.02 224.00,505.28
             198.54,501.85 180.76,497.56 157.00,487.43
             124.64,473.62 95.15,453.83 71.09,428.00
             7.01,359.22 -13.14,257.09 19.05,169.00
             31.22,135.71 52.10,102.24 77.17,77.17
             102.24,52.10 135.71,31.22 169.00,19.05
             188.05,12.09 207.91,7.91 228.00,5.29
             228.00,5.29 238.00,4.21 238.00,4.21 Z
           M 295.75,34.08
           C 289.85,34.25 285.08,39.77 281.43,44.00
             271.84,55.11 264.45,71.05 265.04,86.00
             265.21,90.43 266.85,97.86 268.46,102.00
             269.76,105.33 272.48,109.31 271.22,112.96
             269.17,118.88 258.44,119.56 253.00,120.54
             253.00,120.54 238.00,123.01 238.00,123.01
             238.00,123.01 216.00,129.08 216.00,129.08
             216.00,129.08 198.00,133.58 198.00,133.58
             198.00,133.58 164.00,143.44 164.00,143.44
             160.90,144.40 153.86,147.05 155.63,151.50
             157.55,156.48 171.14,152.08 175.00,151.50
             175.00,151.50 235.00,140.66 235.00,140.66
             239.76,139.20 247.09,137.06 252.00,137.06
             254.32,137.05 257.86,137.47 258.66,140.14
             259.96,144.44 250.95,148.39 248.01,150.20
             239.53,155.46 223.22,170.49 216.42,178.04
             206.24,189.34 193.27,205.28 185.09,218.00
             185.09,218.00 179.14,228.00 179.14,228.00
             179.14,228.00 153.70,263.91 153.70,263.91
             148.76,269.29 135.65,279.22 129.00,282.30
             123.02,285.06 116.43,285.54 110.00,286.42
             106.03,286.97 93.58,289.77 91.04,289.26
             83.70,287.80 85.00,280.19 86.67,275.00
             91.31,260.55 94.65,252.42 101.78,239.00
             112.49,218.84 135.41,195.38 156.00,185.26
             156.00,185.26 184.00,173.44 184.00,173.44
             187.81,172.09 193.72,171.36 196.77,169.01
             201.23,165.57 199.18,160.45 193.00,160.07
             187.78,159.75 183.80,162.13 179.00,163.56
             169.80,166.31 166.52,166.43 157.00,170.70
             150.29,173.70 143.24,176.33 137.00,180.23
             111.64,196.08 88.96,224.58 77.17,252.00
             72.49,262.88 71.31,272.75 68.88,284.00
             68.01,288.07 67.89,293.55 65.30,296.85
             58.45,305.61 51.49,293.51 50.37,292.44
             48.10,290.28 45.20,290.13 43.74,293.23
             41.39,298.21 44.30,305.17 49.02,307.69
             55.04,310.90 64.93,305.55 67.53,319.00
             67.53,319.00 68.17,328.00 68.17,328.00
             68.17,328.00 70.90,343.00 70.90,343.00
             75.63,362.47 80.38,371.96 90.55,389.00
             90.55,389.00 100.49,405.00 100.49,405.00
             109.99,417.98 131.33,436.62 145.00,445.45
             145.00,445.45 162.00,454.64 162.00,454.64
             162.00,454.64 175.00,461.55 175.00,461.55
             175.00,461.55 208.00,471.42 208.00,471.42
             208.00,471.42 232.00,477.70 232.00,477.70
             232.00,477.70 242.00,478.28 242.00,478.28
             245.60,478.71 252.73,479.92 256.00,479.79
             256.00,479.79 273.00,479.79 273.00,479.79
             273.00,479.79 290.00,477.30 290.00,477.30
             290.00,477.30 303.00,476.49 303.00,476.49
             347.11,467.45 384.56,447.07 417.00,416.04
             417.00,416.04 424.57,408.91 424.57,408.91
             439.99,392.13 452.55,369.37 460.31,348.00
             464.89,335.36 468.98,311.40 469.00,298.00
             469.00,298.00 469.00,278.00 469.00,278.00
             468.99,268.94 468.30,270.74 467.13,263.00
             463.37,238.07 456.05,215.73 443.08,194.00
             428.85,170.16 397.19,144.78 372.00,133.18
             372.00,133.18 355.00,125.76 355.00,125.76
             355.00,125.76 346.00,123.43 346.00,123.43
             343.03,122.49 338.86,120.69 338.86,116.98
             338.86,113.28 343.25,110.08 346.00,108.23
             354.47,102.55 354.89,103.25 363.00,99.24
             365.05,98.23 368.93,96.48 370.21,94.61
             372.43,91.36 369.94,86.83 362.00,89.04
             362.00,89.04 331.00,102.42 331.00,102.42
             327.76,103.15 325.22,101.52 325.79,97.98
             326.31,94.83 331.01,89.43 333.17,87.00
             345.46,73.16 357.01,62.47 373.00,53.01
             375.57,51.49 384.82,46.11 379.43,42.30
             377.68,40.95 374.82,41.68 373.00,42.30
             373.00,42.30 356.00,51.31 356.00,51.31
             342.34,59.48 326.94,73.70 318.24,87.00
             315.83,90.69 312.09,96.98 310.45,101.00
             308.63,105.45 307.73,111.06 303.79,114.15
             297.50,119.07 290.04,116.12 285.97,109.98
             281.35,103.03 278.82,86.39 279.01,78.00
             279.22,69.08 284.33,57.10 289.61,50.00
             289.61,50.00 295.75,43.00 295.75,43.00
             298.25,39.78 299.94,36.49 295.75,34.08 Z
           M 349.00,146.00
           C 361.60,142.95 371.46,151.46 381.17,158.19
             381.17,158.19 395.00,167.74 395.00,167.74
             414.50,183.56 431.84,203.23 440.94,227.00
             440.94,227.00 446.15,245.00 446.15,245.00
             448.44,253.59 450.56,262.15 451.71,271.00
             451.71,271.00 452.31,295.00 452.31,295.00
             453.69,320.67 446.37,340.02 436.28,363.00
             434.09,367.99 431.56,373.91 427.68,377.85
             425.99,379.57 423.11,381.66 420.70,379.99
             417.34,377.66 418.79,370.50 419.02,367.00
             419.02,367.00 422.00,329.00 422.00,329.00
             422.00,329.00 421.00,316.00 421.00,316.00
             421.00,316.00 419.71,291.00 419.71,291.00
             417.96,277.54 406.44,237.57 400.99,225.00
             392.79,206.13 384.18,189.00 371.10,172.91
             364.96,165.36 350.89,154.89 349.00,146.00 Z
           M 290.00,148.55
           C 293.24,147.99 296.76,147.61 300.00,148.55
             312.20,151.84 322.52,169.89 326.68,181.00
             326.68,181.00 331.06,192.00 331.06,192.00
             334.44,201.97 335.27,212.70 337.17,223.00
             338.97,232.79 340.98,234.51 341.00,246.00
             341.00,246.00 341.00,285.00 341.00,285.00
             341.00,285.00 342.00,300.00 342.00,300.00
             342.32,327.91 347.37,363.43 358.86,389.00
             362.29,396.63 367.22,403.13 374.00,408.07
             378.08,411.05 385.09,412.90 384.81,419.00
             384.59,423.95 380.77,426.06 377.00,428.28
             377.00,428.28 354.00,440.75 354.00,440.75
             345.81,444.82 317.43,455.50 309.00,457.19
             309.00,457.19 291.00,459.17 291.00,459.17
             291.00,459.17 275.00,461.00 275.00,461.00
             275.00,461.00 241.00,461.00 241.00,461.00
             231.24,460.88 214.72,456.77 205.00,454.07
             205.00,454.07 182.00,447.55 182.00,447.55
             175.57,444.95 170.02,441.21 164.00,437.90
             164.00,437.90 153.00,432.36 153.00,432.36
             134.79,420.84 118.59,403.85 106.06,386.42
             94.28,370.04 83.03,340.32 83.14,320.00
             83.14,320.00 83.14,313.00 83.14,313.00
             83.00,311.06 82.92,307.82 83.14,306.02
             86.42,295.40 100.64,300.91 107.96,301.93
             107.96,301.93 124.00,301.93 124.00,301.93
             148.44,301.70 168.30,270.40 181.15,253.00
             181.15,253.00 196.44,230.09 196.44,230.09
             196.44,230.09 201.98,222.96 201.98,222.96
             210.64,210.99 219.24,199.02 229.32,188.17
             229.32,188.17 237.00,180.99 237.00,180.99
             241.53,176.56 245.98,171.56 251.00,167.75
             261.94,159.44 276.94,152.83 290.00,148.55 Z
           M 330.00,155.00
           C 332.34,155.02 334.76,154.92 337.00,155.72
             343.12,157.91 351.16,167.08 355.42,172.00
             362.55,180.22 362.58,179.20 369.16,189.00
             376.37,199.72 385.33,215.97 389.94,228.00
             389.94,228.00 396.52,250.00 396.52,250.00
             400.50,262.21 405.14,277.41 407.39,290.00
             407.39,290.00 409.28,305.00 409.28,305.00
             409.28,305.00 411.04,322.00 411.04,322.00
             411.04,322.00 411.04,334.99 411.04,334.99
             411.04,334.99 411.99,346.00 411.99,346.00
             411.99,346.00 411.00,359.00 411.00,359.00
             411.00,359.00 411.00,375.00 411.00,375.00
             411.00,375.00 412.74,392.00 412.74,392.00
             412.25,395.52 409.81,398.36 406.00,397.35
             403.15,396.59 401.19,393.63 398.00,394.30
             394.91,394.95 388.76,403.15 381.09,398.98
             376.03,396.23 370.64,382.51 368.40,377.00
             362.89,363.47 358.56,347.58 357.00,333.00
             357.00,333.00 357.00,323.00 357.00,323.00
             357.00,323.00 355.00,305.00 355.00,305.00
             355.00,305.00 355.00,286.00 355.00,286.00
             355.00,286.00 354.00,269.00 354.00,269.00
             354.00,269.00 354.00,249.00 354.00,249.00
             353.98,236.84 347.77,206.72 344.76,194.00
             342.91,186.14 338.96,179.09 335.22,172.00
             331.56,165.06 328.93,163.24 330.00,155.00 Z
           M 279.00,313.78
           C 274.42,314.08 270.51,315.70 268.31,320.04
             265.17,326.25 270.09,334.86 277.00,335.49
             289.07,336.58 292.94,316.44 279.00,313.78 Z
           M 198.00,315.35
           C 183.04,319.68 187.97,339.39 202.00,336.73
             216.20,334.03 214.51,313.81 198.00,315.35 Z
           M 288.91,393.73
           C 283.13,396.69 278.56,404.76 272.00,409.25
             258.51,417.83 242.59,418.25 229.00,409.25
             221.61,404.67 216.92,398.12 213.00,395.74
             207.75,392.56 203.42,395.78 204.47,401.00
             205.62,406.69 213.44,413.04 218.00,416.23
             220.88,418.25 225.75,421.21 229.00,422.45
             243.09,427.80 265.30,425.64 277.28,416.23
             282.48,412.15 288.27,407.06 291.16,401.00
             292.78,397.61 293.73,393.91 288.91,393.73 Z" />
</svg>
