<?xml version="1.0" encoding="UTF-8" standalone="no"?>
<!DOCTYPE svg PUBLIC "-//W3C//DTD SVG 20010904//EN"
              "http://www.w3.org/TR/2001/REC-SVG-20010904/DTD/svg10.dtd">

<svg xmlns="http://www.w3.org/2000/svg"
     width="1.70667in" height="1.70667in"
     viewBox="0 0 512 512">
  <path id="选区"
        fill="black" stroke="black" stroke-width="1"
        d="M 235.69,3.35
           C 235.69,3.35 266.97,3.35 266.97,3.35
             292.69,3.17 327.59,10.81 351.44,20.44
             386.65,34.66 418.57,56.26 444.08,84.46
             526.77,175.89 529.56,322.72 452.12,418.15
             434.59,439.76 412.82,458.58 388.99,472.95
             355.85,492.94 318.08,505.22 279.49,507.92
             279.49,507.92 266.97,508.87 266.97,508.87
             266.97,508.87 241.94,508.87 241.94,508.87
             241.94,508.87 231.51,507.92 231.51,507.92
             211.63,506.53 192.05,502.67 173.11,496.36
             141.64,485.87 110.18,468.40 85.51,446.13
             46.78,411.15 19.38,363.92 8.56,312.83
             3.30,287.98 2.84,267.08 3.13,241.92
             3.13,241.92 4.08,231.49 4.08,231.49
             6.17,202.86 13.37,174.22 25.35,148.07
             52.48,88.84 102.36,41.33 163.73,18.82
             183.38,11.62 203.45,6.96 224.21,4.47
             224.21,4.47 235.69,3.35 235.69,3.35 Z
           M 376.47,47.97
           C 376.47,47.97 341.01,30.87 341.01,30.87
             318.18,21.65 293.57,16.22 269.06,14.51
             269.06,14.51 258.63,13.56 258.63,13.56
             228.86,13.21 192.09,21.29 164.77,33.08
             130.55,47.84 103.78,66.51 78.31,93.85
             41.52,133.34 18.43,188.24 14.51,241.92
             14.51,241.92 13.56,252.35 13.56,252.35
             12.81,316.50 41.53,381.46 86.56,426.49
             108.40,448.34 134.25,465.86 162.69,478.03
             191.65,490.42 227.04,498.81 258.63,498.44
             258.63,498.44 268.01,497.58 268.01,497.58
             282.29,496.21 295.75,494.51 309.73,491.01
             396.28,469.38 463.12,404.86 487.75,319.09
             493.57,298.83 497.69,273.40 497.44,252.35
             497.44,252.35 496.49,241.92 496.49,241.92
             493.66,203.15 481.43,165.70 461.36,132.43
             446.66,108.07 427.76,86.34 405.67,68.42
             399.12,63.10 383.96,51.87 376.47,49.01
             374.15,56.84 367.05,59.01 360.83,63.37
             350.24,70.78 342.68,78.41 333.73,87.59
             330.36,91.05 320.99,100.68 324.37,106.03
             326.27,109.05 329.95,108.10 332.67,107.04
             332.67,107.04 354.57,97.28 354.57,97.28
             356.65,96.39 364.61,93.17 365.40,97.28
             365.97,100.28 359.85,102.95 357.70,103.96
             351.73,106.73 335.17,113.83 336.39,121.99
             337.34,128.41 347.55,129.37 352.49,131.31
             369.34,137.93 383.78,145.83 398.37,156.58
             410.82,165.74 426.46,181.18 435.14,193.96
             448.46,213.57 461.70,251.45 461.98,275.29
             462.43,313.86 461.77,335.95 443.09,371.23
             416.71,421.05 361.04,457.67 306.60,469.85
             299.22,471.50 298.59,470.87 292.00,471.51
             275.26,473.12 277.69,474.69 257.59,474.46
             239.46,474.24 220.60,469.34 203.36,464.06
             184.10,458.16 186.25,460.50 166.86,450.73
             166.86,450.73 150.17,441.69 150.17,441.69
             141.16,436.09 132.94,429.58 125.14,422.41
             107.79,406.45 103.30,399.97 91.92,379.57
             88.46,373.37 83.37,364.22 81.03,357.67
             78.43,350.40 75.64,337.28 74.49,329.52
             73.90,325.52 73.47,318.46 71.95,314.93
             67.08,303.57 52.66,311.90 49.75,299.27
             48.99,295.96 50.85,292.57 53.95,293.97
             56.86,295.27 62.83,306.01 70.24,297.73
             71.21,296.64 71.93,295.35 72.50,294.02
             72.50,294.02 81.41,256.52 81.41,256.52
             90.68,232.10 113.31,203.13 134.53,188.16
             141.05,183.56 148.09,180.00 155.39,176.83
             169.50,170.69 169.67,171.79 182.50,167.54
             186.12,166.34 192.21,163.84 195.89,165.53
             199.75,167.31 197.48,170.51 194.95,172.21
             194.95,172.21 176.24,179.06 176.24,179.06
             167.38,182.86 156.09,187.43 148.09,192.60
             129.09,204.87 109.57,227.52 100.26,248.18
             97.05,255.32 90.72,270.09 89.18,277.38
             88.24,281.84 88.41,287.22 92.93,289.49
             96.39,291.61 102.55,289.92 106.37,289.49
             119.83,287.02 127.97,287.39 139.74,279.34
             144.40,276.15 148.06,273.91 152.25,269.98
             163.26,259.67 178.79,234.42 187.40,221.07
             194.41,210.18 208.94,191.62 217.96,182.48
             229.71,170.60 238.17,161.93 252.37,152.80
             255.47,150.81 261.14,146.53 257.81,142.35
             253.44,136.85 237.45,143.21 231.51,144.30
             231.51,144.30 186.67,152.04 186.67,152.04
             177.39,153.83 167.96,157.04 158.51,155.37
             162.55,147.34 175.48,145.73 183.54,143.21
             183.54,143.21 241.94,127.69 241.94,127.69
             248.97,126.27 264.99,125.52 269.65,120.55
             275.36,114.48 268.46,107.31 266.41,95.93
             263.95,82.27 271.15,63.58 279.82,53.18
             282.15,50.39 288.36,43.71 291.80,43.09
             297.93,42.03 292.94,49.48 291.80,51.10
             276.76,70.03 275.31,79.96 279.76,103.23
             281.36,111.61 286.78,123.33 297.21,121.75
             305.46,120.51 307.21,112.61 310.05,106.36
             312.61,100.73 317.67,92.59 321.36,87.59
             332.32,72.75 351.24,58.43 368.13,50.88
             368.13,50.88 376.47,47.97 376.47,47.97 Z
           M 348.65,148.70
           C 344.27,152.59 349.91,158.25 352.80,161.63
             352.80,161.63 363.92,173.10 363.92,173.10
             369.85,179.31 376.06,188.64 380.58,196.04
             380.58,196.04 398.13,231.49 398.13,231.49
             398.13,231.49 403.94,250.26 403.94,250.26
             407.80,262.35 414.91,285.03 415.06,297.19
             415.06,297.19 415.06,306.57 415.06,306.57
             415.06,306.57 416.03,317.00 416.03,317.00
             416.03,317.00 416.03,337.86 416.03,337.86
             416.03,337.86 414.09,364.97 414.09,364.97
             414.09,364.97 414.09,369.14 414.09,369.14
             414.09,369.14 414.09,374.33 414.09,374.33
             414.85,377.52 416.72,379.93 420.28,378.88
             425.48,377.35 429.78,368.56 431.97,363.93
             439.96,347.06 448.40,323.22 448.43,304.49
             448.43,304.49 448.43,282.59 448.43,282.59
             448.41,269.03 441.55,238.82 436.49,226.28
             433.31,218.43 427.38,208.15 422.45,201.25
             413.83,189.18 405.33,181.40 394.20,171.92
             387.83,166.50 384.09,164.43 377.51,159.84
             369.12,153.97 359.62,146.07 348.65,148.70 Z
           M 293.04,150.50
           C 284.97,151.73 279.51,154.37 272.19,157.60
             266.08,160.30 261.12,162.38 255.50,166.17
             234.07,180.64 210.12,212.15 195.05,233.58
             195.05,233.58 181.84,253.39 181.84,253.39
             168.76,271.09 150.73,300.02 126.19,300.23
             126.19,300.23 110.54,300.23 110.54,300.23
             103.23,299.41 92.22,294.87 87.62,303.49
             85.90,306.72 86.51,319.99 86.56,324.30
             86.70,335.84 92.29,352.23 96.83,362.88
             107.19,387.19 127.49,411.13 149.13,426.28
             149.13,426.28 164.77,435.28 164.77,435.28
             164.77,435.28 180.41,443.75 180.41,443.75
             180.41,443.75 200.23,449.87 200.23,449.87
             210.86,452.90 226.92,457.65 237.77,457.77
             237.77,457.77 275.31,457.77 275.31,457.77
             275.31,457.77 295.13,455.87 295.13,455.87
             295.13,455.87 309.73,454.11 309.73,454.11
             316.83,452.52 344.59,442.08 351.44,438.74
             351.44,438.74 375.42,425.49 375.42,425.49
             378.57,423.39 382.02,420.15 382.02,416.07
             382.02,409.57 373.55,405.62 369.18,402.02
             363.37,397.25 359.94,391.49 356.78,384.78
             346.41,362.75 341.30,326.79 341.01,302.40
             341.01,302.40 339.97,286.76 339.97,286.76
             339.97,286.76 339.97,249.22 339.97,249.22
             339.95,236.46 337.43,233.54 335.54,222.11
             332.48,203.57 333.86,201.97 325.97,183.53
             320.25,170.16 309.86,150.26 293.04,150.50 Z
           M 328.83,158.10
           C 322.82,163.13 332.22,176.03 335.07,181.44
             341.09,192.89 343.29,205.34 345.81,217.94
             347.37,225.72 350.31,241.74 350.40,249.22
             350.40,249.22 350.40,266.95 350.40,266.95
             350.40,266.95 351.44,282.59 351.44,282.59
             351.44,282.59 351.44,299.27 351.44,299.27
             351.44,299.27 353.53,329.52 353.53,329.52
             353.68,342.06 357.88,358.44 362.31,370.18
             365.39,378.32 371.86,397.65 381.69,398.18
             387.64,398.50 391.33,394.28 395.24,394.04
             399.22,393.81 404.82,399.02 408.62,392.02
             410.55,388.47 408.58,376.71 408.05,372.27
             406.99,363.26 408.79,356.95 408.80,348.29
             408.80,348.29 407.76,325.34 407.76,325.34
             407.71,297.75 403.24,282.39 395.68,256.52
             388.34,231.37 384.70,217.73 369.86,195.00
             361.93,182.86 361.07,182.51 351.62,172.06
             351.62,172.06 345.15,164.95 345.15,164.95
             340.71,160.87 335.05,156.92 328.83,158.10 Z
           M 274.29,315.69
           C 288.31,312.46 288.48,329.79 279.47,332.88
             273.57,334.89 267.88,329.05 268.36,323.26
             268.69,319.22 271.06,317.47 274.29,315.69 Z
           M 198.15,316.73
           C 201.86,315.92 205.21,315.86 208.28,318.58
             213.23,322.94 212.02,331.19 205.42,333.80
             193.44,338.54 185.79,323.38 198.15,316.73 Z
           M 290.96,394.17
           C 281.45,419.03 247.90,427.58 225.26,416.26
             219.33,413.30 208.78,406.13 207.22,399.39
             206.12,394.61 209.63,392.75 213.79,394.66
             217.73,396.48 222.50,402.15 226.30,405.09
             236.31,412.83 248.44,416.03 260.71,412.34
             266.23,410.69 270.74,408.34 274.87,404.28
             279.78,399.46 283.32,392.88 290.96,394.17 Z" />
</svg>
