<?xml version="1.0" encoding="UTF-8" standalone="no"?>
<!DOCTYPE svg PUBLIC "-//W3C//DTD SVG 20010904//EN"
              "http://www.w3.org/TR/2001/REC-SVG-20010904/DTD/svg10.dtd">

<svg xmlns="http://www.w3.org/2000/svg"
     width="1.70667in" height="1.26667in"
     viewBox="0 0 512 380">
  <path id="double-q-mark-2"
        fill="black" stroke="black" stroke-width="1"
        d="M 236.46,11.39
           C 236.46,11.39 13.26,11.39 13.26,11.39
             13.26,11.39 13.26,225.91 13.26,225.91
             13.26,225.91 169.28,225.91 169.28,225.91
             169.28,225.91 128.11,365.68 128.11,365.68
             128.11,365.68 169.28,365.68 169.28,365.68
             169.28,365.68 236.46,225.91 236.46,225.91
             236.46,225.91 236.46,11.39 236.46,11.39 Z
           M 497.57,11.39
           C 497.57,11.39 274.38,11.39 274.38,11.39
             274.38,11.39 274.38,225.91 274.38,225.91
             274.38,225.91 430.39,225.91 430.39,225.91
             430.39,225.91 389.22,365.68 389.22,365.68
             389.22,365.68 430.39,365.68 430.39,365.68
             430.39,365.68 497.57,225.91 497.57,225.91
             497.57,225.91 497.57,11.39 497.57,11.39 Z" />
</svg>
