<?xml version="1.0" encoding="UTF-8" standalone="no"?>
<!DOCTYPE svg PUBLIC "-//W3C//DTD SVG 20010904//EN"
              "http://www.w3.org/TR/2001/REC-SVG-20010904/DTD/svg10.dtd">

<svg xmlns="http://www.w3.org/2000/svg"
     width="1.70667in" height="1.26667in"
     viewBox="0 0 512 380">
  <path id="double-q-mark-1"
        fill="black" stroke="black" stroke-width="1"
        d="M 275.54,11.39
           C 275.54,11.39 498.74,11.39 498.74,11.39
             498.74,11.39 498.74,225.91 498.74,225.91
             498.74,225.91 342.72,225.91 342.72,225.91
             342.72,225.91 383.89,365.68 383.89,365.68
             383.89,365.68 342.72,365.68 342.72,365.68
             342.72,365.68 275.54,225.91 275.54,225.91
             275.54,225.91 275.54,11.39 275.54,11.39 Z
           M 14.43,11.39
           C 14.43,11.39 237.62,11.39 237.62,11.39
             237.62,11.39 237.62,225.91 237.62,225.91
             237.62,225.91 81.61,225.91 81.61,225.91
             81.61,225.91 122.78,365.68 122.78,365.68
             122.78,365.68 81.61,365.68 81.61,365.68
             81.61,365.68 14.43,225.91 14.43,225.91
             14.43,225.91 14.43,11.39 14.43,11.39 Z" />
</svg>
